<?xml version="1.0" encoding="utf-8"?>
<!-- Generator: Adobe Illustrator 24.0.3, SVG Export Plug-In . SVG Version: 6.00 Build 0)  -->
<svg version="1.1" id="Layer_1" xmlns="http://www.w3.org/2000/svg" xmlns:xlink="http://www.w3.org/1999/xlink" x="0px" y="0px"
	 viewBox="0 0 24 24" style="enable-background:new 0 0 24 24;" xml:space="preserve">
<style type="text/css">
	.st0{fill:none;}
</style>
<path class="st0" d="M0,0h24v24H0V0z"/>
<path d="M15,12c2.2,0,4-1.8,4-4s-1.8-4-4-4s-4,1.8-4,4S12.8,12,15,12z M15,14c-2.7,0-8,1.3-8,4v1c0,0.5,0.4,1,1,1h14
	c0.5,0,1-0.5,1-1v-1C23,15.3,17.7,14,15,14z"/>
<path d="M46.8-9.5c2.2,0,4-1.8,4-4s-1.8-4-4-4s-4,1.8-4,4S44.6-9.5,46.8-9.5z M37.8-11.5v-2c0-0.6-0.4-1-1-1c-0.5,0-1,0.4-1,1v2h-2
	c-0.5,0-1,0.4-1,1s0.5,1,1,1h2v2c0,0.6,0.5,1,1,1c0.6,0,1-0.4,1-1v-2h2c0.6,0,1-0.4,1-1s-0.4-1-1-1H37.8z M46.8-7.5
	c-2.7,0-8,1.3-8,4v1c0,0.5,0.5,1,1,1h14c0.5,0,1-0.5,1-1v-1C54.8-6.2,49.5-7.5,46.8-7.5z"/>
<g id="e8LmKI.tif">
	<g>
		<path d="M1.8,8c0,0,0-0.1,0.1-0.1c0.1-0.2,0.2-0.3,0.4-0.3c0.6,0,1.2,0.1,1.8,0.3C4.5,8.2,5,8.5,5.3,9c0.3,0.4,0.5,0.8,0.8,1.2
			c0.2,0.3,0.4,0.5,0.6,0.8C7,11.3,7.5,11.5,8,11.6c0,0,0,0,0.1,0c0-0.1-0.1-0.1-0.1-0.2c-0.1-0.2-0.1-0.4,0-0.6
			c0.1-0.2,0.4-0.3,0.6-0.2c0.1,0,0.1,0.1,0.2,0.1c0.3,0.3,0.6,0.7,0.8,1c0.2,0.2,0.2,0.5,0,0.7c-0.3,0.3-0.6,0.7-0.9,1
			c-0.1,0.1-0.2,0.1-0.3,0.2c0,0-0.1,0-0.1,0c-0.2-0.1-0.3-0.1-0.4-0.3c-0.1-0.2-0.1-0.4,0.1-0.6c0,0,0.1-0.1,0.1-0.1
			c-0.1,0-0.2,0-0.3,0c-0.8-0.1-1.4-0.5-1.9-1c-0.4-0.4-0.7-0.9-1-1.4c-0.2-0.3-0.5-0.7-0.7-1C3.8,8.9,3.4,8.7,3,8.6
			c-0.2,0-0.5,0-0.7,0C2,8.6,1.9,8.5,1.8,8.2c0,0,0,0,0,0C1.8,8.1,1.8,8.1,1.8,8z"/>
		<path d="M1.8,12.3C1.8,12.3,1.8,12.2,1.8,12.3C1.9,12,2,11.9,2.3,11.9c0.4,0,0.7,0,1-0.1c0.4-0.1,0.8-0.4,1-0.7
			c0.1-0.2,0.3-0.3,0.4-0.5c0.2,0.3,0.4,0.6,0.6,0.9c-0.2,0.3-0.5,0.5-0.7,0.8C4,12.7,3.1,13,2.3,12.9c-0.2,0-0.4-0.1-0.4-0.3
			c0,0,0-0.1,0-0.1C1.8,12.4,1.8,12.3,1.8,12.3z"/>
		<path d="M8,8.9C7.3,9,6.7,9.4,6.3,10C6.1,9.7,5.9,9.4,5.7,9.1C6.3,8.4,7,7.9,8,7.9c0-0.1-0.1-0.1-0.1-0.1C7.8,7.6,7.7,7.4,7.8,7.2
			C7.9,7,8,6.9,8.2,6.9c0.1,0,0.3,0,0.4,0.1c0.3,0.3,0.6,0.7,1,1c0.2,0.2,0.2,0.5,0,0.7C9.3,9,9,9.3,8.7,9.7
			C8.5,9.9,8.3,9.9,8.1,9.8C7.9,9.7,7.8,9.4,7.9,9.2C7.9,9.1,8,9,8,8.9z"/>
	</g>
</g>
</svg>
