<?xml version="1.0" encoding="utf-8"?>
<!-- Generator: Adobe Illustrator 24.0.3, SVG Export Plug-In . SVG Version: 6.00 Build 0)  -->
<svg version="1.2" baseProfile="tiny" xmlns="http://www.w3.org/2000/svg" xmlns:xlink="http://www.w3.org/1999/xlink" x="0px"
	 y="0px" viewBox="0 0 24 24" xml:space="preserve">
<g id="Layer_1">
	<path fill="none" d="M0,0h24v24H0V0z"/>
	<path d="M16.487,12c1.243,0,2.249-1.007,2.249-2.249s-1.007-2.249-2.249-2.249s-2.249,1.007-2.249,2.249S15.245,12,16.487,12z
		 M16.487,13.125c-1.501,0-4.499,0.754-4.499,2.249v0.562c0,0.309,0.253,0.562,0.562,0.562h7.872c0.309,0,0.562-0.253,0.562-0.562
		v-0.562C20.986,13.878,17.989,13.125,16.487,13.125z M6.233,12.266c-0.187,0.285-0.386,0.562-0.622,0.81
		c-0.557,0.586-1.285,0.742-2.069,0.702c-0.705-0.036-0.701,1.057,0,1.093c1.474,0.075,2.516-0.562,3.346-1.647
		c-0.137-0.178-0.263-0.357-0.378-0.53C6.414,12.552,6.322,12.407,6.233,12.266z M7.656,11.396c0.076,0.119,0.151,0.236,0.226,0.351
		c0.138-0.191,0.286-0.375,0.452-0.547c0.419-0.433,0.897-0.61,1.421-0.661c-0.033,0.04-0.066,0.081-0.099,0.121
		c-0.192,0.228-0.224,0.549,0,0.773c0.197,0.197,0.581,0.228,0.773,0c0.296-0.351,0.578-0.713,0.873-1.065
		c0.192-0.193,0.266-0.515,0.028-0.773L10.346,8.53c-0.479-0.519-1.25,0.256-0.773,0.773l0.128,0.138
		c-0.536,0.038-1.053,0.175-1.53,0.485c-0.356,0.232-0.656,0.529-0.923,0.855c0.054,0.075,0.107,0.152,0.16,0.232
		C7.493,11.14,7.576,11.27,7.656,11.396z M10.428,12.567c-0.093-0.11-0.229-0.16-0.369-0.16c-0.15,0-0.302,0.058-0.404,0.16
		c-0.224,0.224-0.192,0.545,0,0.773c0.034,0.04,0.066,0.081,0.099,0.121c-0.524-0.05-1.002-0.228-1.421-0.661
		c-0.238-0.246-0.44-0.518-0.628-0.8c-0.183-0.273-0.354-0.554-0.536-0.829c-0.035-0.053-0.07-0.103-0.106-0.154
		c-0.815-1.169-1.834-1.894-3.29-1.894c-0.076,0-0.154,0.002-0.232,0.006c-0.69,0.035-0.704,1.093-0.034,1.093
		c0.011,0,0.022,0,0.034-0.001c0.076-0.004,0.151-0.006,0.225-0.006c0.698,0,1.34,0.178,1.844,0.708
		C5.92,11.25,6.165,11.623,6.404,12c0.113,0.179,0.226,0.358,0.344,0.535c0.101,0.151,0.206,0.302,0.316,0.449
		c0.313,0.418,0.668,0.805,1.108,1.091c0.477,0.31,0.993,0.446,1.53,0.485l-0.128,0.138c-0.366,0.396,0.002,0.944,0.41,0.944
		c0.124,0,0.251-0.051,0.363-0.172l0.983-1.065c0.238-0.258,0.165-0.58-0.028-0.773C11.006,13.28,10.724,12.918,10.428,12.567z"/>
	<g display="none">
		<path display="inline" d="M2.494,9.562C2.515,9.505,2.532,9.445,2.56,9.391c0.097-0.188,0.254-0.303,0.464-0.315
			c0.713-0.042,1.4,0.068,2.041,0.397c0.576,0.296,1.058,0.711,1.443,1.227c0.329,0.441,0.619,0.912,0.939,1.36
			c0.217,0.305,0.442,0.607,0.688,0.889c0.379,0.435,0.717,0.591,1.252,0.695c0.022,0.003,0.238,0.031,0.274,0.031
			c-0.052-0.067-0.1-0.123-0.142-0.184C9.367,13.271,9.363,13,9.506,12.804c0.148-0.201,0.428-0.293,0.674-0.204
			c0.085,0.031,0.169,0.09,0.228,0.159c0.325,0.384,0.643,0.773,0.96,1.163c0.195,0.24,0.195,0.528-0.013,0.759
			c-0.352,0.39-0.709,0.777-1.074,1.155c-0.077,0.08-0.199,0.116-0.3,0.173c-0.052,0-0.105,0-0.157,0
			c-0.183-0.059-0.335-0.157-0.428-0.331c-0.125-0.235-0.098-0.471,0.078-0.671c0.041-0.046,0.083-0.091,0.136-0.149
			c-0.105-0.013-0.196-0.024-0.288-0.035c-0.872-0.11-1.567-0.539-2.143-1.185c-0.43-0.482-0.768-1.029-1.116-1.57
			c-0.258-0.401-0.519-0.8-0.86-1.138c-0.374-0.372-0.828-0.589-1.348-0.656c-0.264-0.034-0.533-0.039-0.8-0.038
			c-0.284,0.001-0.47-0.126-0.545-0.404C2.508,9.819,2.499,9.809,2.494,9.798C2.494,9.719,2.494,9.641,2.494,9.562z"/>
		<path display="inline" d="M2.494,14.441c0.006-0.007,0.014-0.014,0.017-0.022c0.102-0.3,0.265-0.413,0.58-0.397
			c0.407,0.021,0.808-0.014,1.199-0.138c0.491-0.156,0.875-0.457,1.187-0.858c0.152-0.195,0.296-0.397,0.445-0.598
			c0.228,0.334,0.457,0.67,0.689,1.01c-0.243,0.329-0.526,0.625-0.846,0.886c-0.798,0.655-1.722,0.917-2.743,0.857
			c-0.245-0.014-0.408-0.157-0.491-0.388c-0.012-0.033-0.024-0.066-0.037-0.098C2.494,14.611,2.494,14.526,2.494,14.441z"/>
		<path display="inline" d="M9.647,10.582c-0.884,0.068-1.485,0.57-1.964,1.281c-0.229-0.353-0.45-0.693-0.672-1.034
			c0.659-0.842,1.501-1.35,2.605-1.421C9.562,9.349,9.521,9.305,9.481,9.26C9.327,9.088,9.273,8.89,9.356,8.671
			c0.089-0.234,0.258-0.383,0.511-0.417c0.159-0.021,0.298,0.037,0.407,0.153c0.366,0.391,0.731,0.783,1.091,1.179
			c0.195,0.214,0.192,0.517,0,0.752c-0.314,0.385-0.629,0.767-0.945,1.15c-0.186,0.226-0.484,0.275-0.741,0.124
			c-0.243-0.142-0.347-0.431-0.235-0.695C9.494,10.8,9.576,10.697,9.647,10.582z"/>
	</g>
	<path display="none" d="M5.898,10.409L3.384,7.895c-0.219-0.219-0.574-0.219-0.793,0c-0.219,0.219-0.219,0.574,0,0.793l2.508,2.508
		L5.898,10.409z M8.574,7.979l0.669,0.669l-6.658,6.658c-0.219,0.219-0.219,0.574,0,0.793c0.219,0.219,0.574,0.219,0.793,0
		l6.663-6.652l0.669,0.669c0.174,0.174,0.478,0.051,0.478-0.202V7.783c0-0.157-0.124-0.281-0.281-0.281H8.777
		C8.524,7.501,8.4,7.805,8.574,7.979z M8.282,12.793l-0.793,0.793l1.76,1.76l-0.675,0.675c-0.174,0.174-0.051,0.478,0.202,0.478
		h2.131c0.157,0,0.281-0.124,0.281-0.281v-2.131c0-0.253-0.304-0.377-0.478-0.197l-0.669,0.669
		C10.042,14.559,8.282,12.793,8.282,12.793z"/>
</g>
<g id="Layer_2" display="none">
	<line display="inline" fill="none" x1="9.957" y1="15.375" x2="10.641" y2="14.338"/>
	<path display="inline" fill="none" d="M3.026,9.646c0,0,2.433-0.289,3.585,2.354s4.036,2.326,4.036,2.326l-0.649-0.994"/>
</g>
</svg>
